<?xml version="1.0" encoding="iso-8859-1"?>
<!-- Generator: Adobe Illustrator 19.0.0, SVG Export Plug-In . SVG Version: 6.00 Build 0)  -->
<svg version="1.1" id="Layer_1" xmlns="http://www.w3.org/2000/svg" xmlns:xlink="http://www.w3.org/1999/xlink" x="0px" y="0px"
	 viewBox="0 0 512 512" style="enable-background:new 0 0 512 512;" xml:space="preserve">
<g>
	<g>
		<circle style="fill:#386895;" cx="256" cy="256" r="256"/>
	</g>
	<path style="fill:#273B7A;" d="M509.13,217.579l-90.228-90.228c-8.802,9.102-22.444,11.947-31.885,20.04
		c-17.239,12.067-20.687,36.202-32.754,51.717c-39.65,49.993-105.158,18.963-162.047,32.754
		c-24.135,5.172-44.822,22.411-58.613,44.822c-11.693,19.489-19.475,42.889-35.88,58.404l176.271,176.273
		C406.981,502.125,512,391.333,512,256C512,242.941,511.016,230.112,509.13,217.579z"/>
	<g>
		<path style="fill:#FDE085;" d="M406.978,120.301h-84.745c-6.589,0-11.931,5.342-11.931,11.931v90.641h-30.853
			c-3.332,0-6.034,2.701-6.034,6.034s2.701,6.034,6.034,6.034h30.854v90.641c0,6.589,5.341,11.931,11.931,11.931h84.745
			c6.589,0,11.931-5.342,11.931-11.931v-193.35C418.909,125.643,413.568,120.301,406.978,120.301z"/>
		<path style="fill:#FFEDB5;" d="M230.493,222.873h-28.796v-90.641c0-6.589-5.341-11.931-11.931-11.931h-84.744
			c-6.589,0-11.931,5.342-11.931,11.931v193.352c0,6.589,5.341,11.931,11.931,11.931h84.745c6.589,0,11.931-5.342,11.931-11.931
			v-90.641h28.796c3.332,0,6.034-2.701,6.034-6.034C236.528,225.577,233.825,222.873,230.493,222.873z"/>
	</g>
	<g>
		<path style="fill:#366695;" d="M147.394,312.947c-1.427,0-2.586-1.158-2.586-2.586V147.453c0-1.427,1.158-2.586,2.586-2.586
			s2.586,1.158,2.586,2.586v162.909C149.98,311.789,148.821,312.947,147.394,312.947z"/>
	</g>
	<g>
		<path style="fill:#366695;" d="M120.242,312.947c-1.427,0-2.586-1.158-2.586-2.586V147.453c0-1.427,1.158-2.586,2.586-2.586
			s2.586,1.158,2.586,2.586v162.909C122.828,311.789,121.67,312.947,120.242,312.947z"/>
	</g>
	<g>
		<path style="fill:#366695;" d="M174.545,312.947c-1.427,0-2.586-1.158-2.586-2.586V147.453c0-1.427,1.158-2.586,2.586-2.586
			s2.586,1.158,2.586,2.586v162.909C177.131,311.789,175.973,312.947,174.545,312.947z"/>
	</g>
	<g>
		<path style="fill:#366695;" d="M188.121,150.038h-81.455c-1.427,0-2.586-1.158-2.586-2.586s1.158-2.586,2.586-2.586h81.455
			c1.427,0,2.586,1.158,2.586,2.586S189.549,150.038,188.121,150.038z"/>
	</g>
	<g>
		<path style="fill:#366695;" d="M188.121,204.341h-81.455c-1.427,0-2.586-1.158-2.586-2.586s1.158-2.586,2.586-2.586h81.455
			c1.427,0,2.586,1.158,2.586,2.586S189.549,204.341,188.121,204.341z"/>
	</g>
	<g>
		<path style="fill:#366695;" d="M188.121,177.19h-81.455c-1.427,0-2.586-1.158-2.586-2.586c0-1.427,1.158-2.586,2.586-2.586h81.455
			c1.427,0,2.586,1.158,2.586,2.586C190.707,176.031,189.549,177.19,188.121,177.19z"/>
	</g>
	<g>
		<path style="fill:#366695;" d="M188.121,231.493h-81.455c-1.427,0-2.586-1.158-2.586-2.586s1.158-2.586,2.586-2.586h81.455
			c1.427,0,2.586,1.158,2.586,2.586S189.549,231.493,188.121,231.493z"/>
	</g>
	<g>
		<path style="fill:#366695;" d="M188.121,258.644h-81.455c-1.427,0-2.586-1.158-2.586-2.586s1.158-2.586,2.586-2.586h81.455
			c1.427,0,2.586,1.158,2.586,2.586S189.549,258.644,188.121,258.644z"/>
	</g>
	<g>
		<path style="fill:#366695;" d="M188.121,285.796h-81.455c-1.427,0-2.586-1.158-2.586-2.586s1.158-2.586,2.586-2.586h81.455
			c1.427,0,2.586,1.158,2.586,2.586S189.549,285.796,188.121,285.796z"/>
	</g>
	<g>
		<path style="fill:#366695;" d="M188.121,312.947h-81.455c-1.427,0-2.586-1.158-2.586-2.586s1.158-2.586,2.586-2.586h81.455
			c1.427,0,2.586,1.158,2.586,2.586S189.549,312.947,188.121,312.947z"/>
	</g>
	<g>
		<path style="fill:#366695;" d="M364.606,312.947c-1.427,0-2.586-1.158-2.586-2.586V147.453c0-1.427,1.158-2.586,2.586-2.586
			s2.586,1.158,2.586,2.586v162.909C367.192,311.789,366.033,312.947,364.606,312.947z"/>
	</g>
	<g>
		<path style="fill:#366695;" d="M337.455,312.947c-1.427,0-2.586-1.158-2.586-2.586V147.453c0-1.427,1.158-2.586,2.586-2.586
			s2.586,1.158,2.586,2.586v162.909C340.04,311.789,338.882,312.947,337.455,312.947z"/>
	</g>
	<g>
		<path style="fill:#366695;" d="M391.758,312.947c-1.427,0-2.586-1.158-2.586-2.586V147.453c0-1.427,1.158-2.586,2.586-2.586
			s2.586,1.158,2.586,2.586v162.909C394.343,311.789,393.185,312.947,391.758,312.947z"/>
	</g>
	<g>
		<path style="fill:#366695;" d="M405.333,150.038h-81.455c-1.427,0-2.586-1.158-2.586-2.586s1.158-2.586,2.586-2.586h81.455
			c1.427,0,2.586,1.158,2.586,2.586S406.761,150.038,405.333,150.038z"/>
	</g>
	<g>
		<path style="fill:#366695;" d="M405.333,204.341h-81.455c-1.427,0-2.586-1.158-2.586-2.586s1.158-2.586,2.586-2.586h81.455
			c1.427,0,2.586,1.158,2.586,2.586S406.761,204.341,405.333,204.341z"/>
	</g>
	<g>
		<path style="fill:#366695;" d="M405.333,177.19h-81.455c-1.427,0-2.586-1.158-2.586-2.586c0-1.427,1.158-2.586,2.586-2.586h81.455
			c1.427,0,2.586,1.158,2.586,2.586C407.919,176.031,406.761,177.19,405.333,177.19z"/>
	</g>
	<g>
		<path style="fill:#366695;" d="M405.333,231.493h-81.455c-1.427,0-2.586-1.158-2.586-2.586s1.158-2.586,2.586-2.586h81.455
			c1.427,0,2.586,1.158,2.586,2.586S406.761,231.493,405.333,231.493z"/>
	</g>
	<g>
		<path style="fill:#366695;" d="M405.333,258.644h-81.455c-1.427,0-2.586-1.158-2.586-2.586s1.158-2.586,2.586-2.586h81.455
			c1.427,0,2.586,1.158,2.586,2.586S406.761,258.644,405.333,258.644z"/>
	</g>
	<g>
		<path style="fill:#366695;" d="M405.333,285.796h-81.455c-1.427,0-2.586-1.158-2.586-2.586s1.158-2.586,2.586-2.586h81.455
			c1.427,0,2.586,1.158,2.586,2.586S406.761,285.796,405.333,285.796z"/>
	</g>
	<g>
		<path style="fill:#366695;" d="M405.333,312.947h-81.455c-1.427,0-2.586-1.158-2.586-2.586s1.158-2.586,2.586-2.586h81.455
			c1.427,0,2.586,1.158,2.586,2.586S406.761,312.947,405.333,312.947z"/>
	</g>
	<g>
		<path style="fill:#FFEDB5;" d="M256,452.153c-3.332,0-6.034-2.701-6.034-6.034V283.21c0-3.332,2.701-6.034,6.034-6.034
			s6.034,2.701,6.034,6.034v162.909C262.034,449.452,259.332,452.153,256,452.153z"/>
	</g>
	<g>
		<path style="fill:#71E2EF;" d="M256,336.274c-44.106,0-81.439,28.906-94.146,68.801c-1.217,3.818,1.626,7.727,5.634,7.727h177.024
			c4.008,0,6.851-3.908,5.634-7.727C337.439,365.18,300.106,336.274,256,336.274z"/>
	</g>
	<g>
		<path style="fill:#FDE085;" d="M271.906,316.121h-31.813c-6.21,0-11.245-5.034-11.245-11.245v-201.03h54.303v201.03
			C283.152,311.087,278.118,316.121,271.906,316.121z"/>
	</g>
	<g>
		<path style="fill:#FDE085;" d="M228.848,95.618c0-14.995,12.157-27.152,27.152-27.152s27.152,12.157,27.152,27.152H228.848z"/>
	</g>
	<g>
		<path style="fill:#38C6D9;" d="M350.146,405.075c-12.707-39.895-50.04-68.801-94.146-68.801c-0.193,0-0.383,0.01-0.574,0.012
			v76.516h89.086C348.52,412.801,351.363,408.893,350.146,405.075z"/>
	</g>
	<g>
		<path style="fill:#FFC61B;" d="M255.426,103.846v212.275h16.481c6.21,0,11.245-5.034,11.245-11.245v-201.03H255.426z"/>
	</g>
	<g>
		<path style="fill:#FFC61B;" d="M256,68.467c-0.193,0-0.381,0.026-0.574,0.029v27.122h27.726
			C283.152,80.622,270.995,68.467,256,68.467z"/>
	</g>
</g>
<g>
</g>
<g>
</g>
<g>
</g>
<g>
</g>
<g>
</g>
<g>
</g>
<g>
</g>
<g>
</g>
<g>
</g>
<g>
</g>
<g>
</g>
<g>
</g>
<g>
</g>
<g>
</g>
<g>
</g>
</svg>
