<?xml version="1.0" encoding="iso-8859-1"?>
<!-- Generator: Adobe Illustrator 19.0.0, SVG Export Plug-In . SVG Version: 6.00 Build 0)  -->
<svg version="1.1" id="Layer_1" xmlns="http://www.w3.org/2000/svg" xmlns:xlink="http://www.w3.org/1999/xlink" x="0px" y="0px"
	 viewBox="0 0 505 505" style="enable-background:new 0 0 505 505;" xml:space="preserve">
<path style="fill:#FFD05B;" d="M505,252.5c0,70.2-28.6,133.7-74.9,179.4C384.5,477.1,321.7,505,252.5,505s-132-27.9-177.6-73
	C28.6,386.2,0,322.7,0,252.5C0,113.1,113,0,252.5,0C391.9,0,505,113.1,505,252.5z"/>
<path style="fill:#F9B54C;" d="M78.6,435.5c45.3,43.1,106.5,69.5,173.9,69.5s128.6-26.5,173.9-69.5H78.6z"/>
<rect x="203.9" y="376" style="fill:#EDF2F2;" width="97.1" height="40.5"/>
<rect x="203.9" y="376" style="opacity:0.45;fill:#395767;enable-background:new    ;" width="97.1" height="12.3"/>
<g>
	<path style="fill:#FFFFFF;" d="M322.9,416.5H182.1c-0.3,0-0.6,0.3-0.6,0.6V435c0,0.3,0.2,0.6,0.6,0.6H323c0.3,0,0.6-0.3,0.6-0.6
		v-17.9C323.5,416.7,323.2,416.5,322.9,416.5z"/>
	<path style="fill:#FFFFFF;" d="M408.2,126.9H96.8c-2,0-3.7,1.7-3.7,3.7v241.7c0,2,1.7,3.7,3.7,3.7h311.3c2,0,3.7-1.7,3.7-3.7V130.6
		C411.8,128.6,410.2,126.9,408.2,126.9z"/>
</g>
<rect x="110.9" y="144.7" style="fill:#2DB39A;" width="283.3" height="187.7"/>
<rect x="234.6" y="234.8" style="fill:#395767;" width="35.7" height="7.8"/>
<g>
	<path style="fill:#324A5E;" d="M276.4,178.8c0,0,43.6,22.1,36.6,79.5c0,0-12.1-23.5-36.6-23.5"/>
	<path style="fill:#324A5E;" d="M228.6,178.8c0,0-43.6,22.1-36.6,79.5c0,0,12.1-23.5,36.6-23.5"/>
</g>
<path style="fill:#FF7058;" d="M252.5,69.4c-6.7,0-23.6,40.5-23.9,83.9v81.6h47.9v-81.6C276.1,109.8,258.5,69.4,252.5,69.4z"/>
<g>
	<ellipse style="fill:#FFFFFF;" cx="252.5" cy="125.6" rx="10.7" ry="21.4"/>
	<polygon style="fill:#FFFFFF;" points="236.6,250.2 229.2,278 246.2,260.5 252.8,282.4 258.7,260.5 275.8,278.3 269.5,250.2 	"/>
</g>
<g>
</g>
<g>
</g>
<g>
</g>
<g>
</g>
<g>
</g>
<g>
</g>
<g>
</g>
<g>
</g>
<g>
</g>
<g>
</g>
<g>
</g>
<g>
</g>
<g>
</g>
<g>
</g>
<g>
</g>
</svg>
